<?xml version="1.0" encoding="utf-8"?>
<!-- Generator: Adobe Illustrator 26.0.2, SVG Export Plug-In . SVG Version: 6.00 Build 0)  -->
<svg version="1.1" id="Calque_1" xmlns="http://www.w3.org/2000/svg" xmlns:xlink="http://www.w3.org/1999/xlink" x="0px" y="0px"
	 viewBox="0 0 1365.6 768.2" style="enable-background:new 0 0 1365.6 768.2;" xml:space="preserve">
<style type="text/css">
	.st0{fill:#FB8D0B;}
	.st1{fill:#F6A200;}
</style>
<path class="st0" d="M1275.8,768.2c-0.3-5.8-0.9-14.5-2.2-24.9c-5.3-41.5-17.3-69.7-24-87.5c-8.4-22.3-24.6-65.2-27.3-104.6
	c-3.6-51.9,19-59,49.1-169.3c18.3-67.2,27.3-101.5,19.5-135.9c-7.1-31-21.3-46.8-21.2-85.4c0.1-24.2,5.8-31.9,10-60.4
	c3.3-22.6,5.4-56.3-2.3-100.3h88.1v768.2H1275.8z"/>
<path class="st1" d="M1308.7,767.4c-0.2-5.8-0.6-14.5-1.4-24.9c-3.4-41.5-10.9-69.6-15.1-87.4c-5.3-22.3-15.5-65.1-17.3-104.4
	c-2.2-51.9,12-58.9,30.9-169.1c11.5-67.1,17.2-101.4,12.3-135.7c-4.4-31-13.5-46.8-13.3-85.3c0.1-24.2,3.7-31.8,6.3-60.4
	c2.1-22.6,3.4-56.2-1.4-100.2h55.5v767.3H1308.7z"/>
<path class="st0" d="M0,768.2L0,0l88.1,0c-7.7,44-5.6,77.6-2.3,100.3c4.2,28.6,9.9,36.2,10,60.4c0.2,38.5-14.1,54.4-21.2,85.4
	C67,280.4,76,314.7,94.3,381.9c30.1,110.3,52.7,117.3,49.1,169.3c-2.7,39.4-18.9,82.2-27.3,104.6c-6.7,17.8-18.6,45.9-24,87.5
	c-1.3,10.4-1.9,19.1-2.2,24.9H0z"/>
<path class="st1" d="M0.3,767.4l0-767.3h55.5c-4.8,43.9-3.5,77.6-1.4,100.2c2.7,28.6,6.3,36.2,6.3,60.4c0.1,38.5-8.9,54.3-13.3,85.3
	c-4.9,34.3,0.8,68.6,12.3,135.7C78.7,491.8,93,498.8,90.7,550.7C89,590,78.8,632.9,73.5,655.2c-4.2,17.8-11.7,45.9-15.1,87.4
	c-0.8,10.4-1.2,19-1.4,24.9H0.3z"/>
</svg>
