<svg xmlns="http://www.w3.org/2000/svg" viewBox="0 0 1365.61 768.16"><defs><style>.cls-1{fill:#fb8d0b;}.cls-2{fill:#f6a200;}</style></defs><g id="Calque_2" data-name="Calque 2"><g id="Calque_1-2" data-name="Calque 1"><path class="cls-1" d="M114.51,768.16c.38-5.85,1.14-14.52,2.85-24.9,6.81-41.54,22-69.69,30.58-87.48,10.76-22.33,31.41-65.18,34.85-104.56,4.54-51.94-24.26-59-62.59-169.28C96.85,314.73,85.38,280.43,95.31,246.09c9-31,27.22-46.81,27-85.35-.13-24.23-7.42-31.86-12.81-60.45C105.27,77.64,102.6,44,112.38,0H0V768.16Z"/><path class="cls-1" d="M1251.1,768.16c-.38-5.85-1.14-14.52-2.85-24.9-6.81-41.54-22-69.69-30.58-87.48-10.76-22.33-31.41-65.18-34.85-104.56-4.54-51.94,24.27-59,62.59-169.28,23.35-67.21,34.82-101.51,24.89-135.85-9-31-27.22-46.81-27-85.35.12-24.23,7.41-31.86,12.8-60.45C1260.34,77.64,1263,44,1253.23,0h112.38V768.16Z"/><path class="cls-2" d="M1293,767.42c-.24-5.84-.72-14.5-1.79-24.87-4.3-41.5-13.87-69.61-19.27-87.39-6.78-22.3-19.8-65.11-22-104.43-2.86-51.89,15.3-58.9,39.45-169.1,14.71-67.13,21.94-101.4,15.69-135.69-5.65-31-17.16-46.77-17-85.26.08-24.2,4.68-31.83,8.07-60.39,2.69-22.62,4.37-56.24-1.79-100.18h70.82V767.42Z"/><path class="cls-2" d="M72.38,767.42c.24-5.84.72-14.5,1.79-24.87,4.3-41.5,13.87-69.61,19.27-87.39,6.79-22.3,19.8-65.11,22-104.43,2.86-51.89-15.3-58.9-39.45-169.1C61.25,314.5,54,280.23,60.28,245.94c5.65-31,17.15-46.77,17-85.26-.08-24.2-4.68-31.83-8.07-60.39C66.55,77.67,64.87,44.05,71,.11H.21V767.42Z"/></g></g></svg>