<?xml version="1.0" encoding="utf-8"?>
<!-- Generator: Adobe Illustrator 26.0.2, SVG Export Plug-In . SVG Version: 6.00 Build 0)  -->
<svg version="1.1" id="Calque_1" xmlns="http://www.w3.org/2000/svg" xmlns:xlink="http://www.w3.org/1999/xlink" x="0px" y="0px"
	 viewBox="0 0 1920 1498" style="enable-background:new 0 0 1920 1498;" xml:space="preserve">
<style type="text/css">
	.st0{fill:#F58522;}
	.st1{fill:#F6A200;}
</style>
<g>
	<path class="st0" d="M165.7,1498.5c0.5-11.4,1.6-28.4,4-48.6c9.6-81.1,31-136.1,43.1-170.8c15.2-43.6,44.3-127.3,49.1-204.2
		c6.4-101.4-34.2-115.2-88.2-330.6c-32.9-131.2-49.1-198.2-35.1-265.3c12.7-60.5,38.4-91.4,38-166.7c-0.2-47.3-10.5-62.2-18.1-118
		c-6-44.2-9.7-109.9,4.1-195.8H4.4v1500H165.7z"/>
	<path class="st0" d="M1760.3,1498.5c-0.5-11.4-1.6-28.4-4-48.6c-9.6-81.1-31-136.1-43.1-170.8c-15.2-43.6-44.3-127.3-49.1-204.2
		c-6.4-101.4,34.2-115.2,88.2-330.6c32.9-131.2,49.1-198.2,35.1-265.3c-12.7-60.5-38.4-91.4-38-166.7c0.2-47.3,10.4-62.2,18-118
		c6-44.2,9.7-109.9-4-195.8h158.4v1500H1760.3z"/>
	<path class="st1" d="M1819.3,1497.1c-0.3-11.4-1-28.3-2.5-48.6c-6.1-81-19.5-135.9-27.2-170.6c-9.6-43.5-27.9-127.1-31-203.9
		c-4-101.3,21.6-115,55.6-330.2c20.7-131.1,30.9-198,22.1-265c-8-60.5-24.2-91.3-24-166.5c0.1-47.3,6.6-62.2,11.4-117.9
		c3.8-44.2,6.2-109.8-2.5-195.6h99.8v1498.3H1819.3z"/>
	<path class="st1" d="M99.3,1497.1c0.3-11.4,1-28.3,2.5-48.6c6.1-81,19.5-135.9,27.2-170.6c9.6-43.5,27.9-127.1,31-203.9
		c4-101.3-21.6-115-55.6-330.2c-20.8-131.1-31-198-22.1-265c8-60.5,24.2-91.3,24-166.5c-0.1-47.3-6.6-62.2-11.4-117.9
		c-3.7-44.2-6.1-109.8,2.5-195.6H-2.4v1498.3H99.3z"/>
</g>
</svg>
